<?xml version="1.0" standalone="no"?><!DOCTYPE svg PUBLIC "-//W3C//DTD SVG 1.1//EN" "http://www.w3.org/Graphics/SVG/1.1/DTD/svg11.dtd"><svg height="4000" node-id="1" sillyvg="true" template-height="4000" template-width="4000" version="1.1" viewBox="0 0 4000 4000" width="4000" xmlns="http://www.w3.org/2000/svg" xmlns:xlink="http://www.w3.org/1999/xlink"><defs node-id="194"><linearGradient gradientUnits="userSpaceOnUse" id="SVGID_1_" node-id="5" spreadMethod="pad" x1="485.2579" x2="3582.1624" y1="1922.8607" y2="1922.8607"><stop offset="0" stop-color="#68b2fc"></stop><stop offset="1" stop-color="#529bf7"></stop></linearGradient><linearGradient gradientUnits="userSpaceOnUse" id="SVGID_2_" node-id="9" spreadMethod="pad" x1="3339.801" x2="3585.4463" y1="1773.0531" y2="1773.0531"><stop offset="0" stop-color="#4085f0"></stop><stop offset="1" stop-color="#275dc9"></stop></linearGradient><linearGradient gradientUnits="userSpaceOnUse" id="SVGID_3_" node-id="13" spreadMethod="pad" x1="232.7404" x2="666.1957" y1="2958.8328" y2="2958.8328"><stop offset="0" stop-color="#68b2fc"></stop><stop offset="1" stop-color="#529bf7"></stop></linearGradient><linearGradient gradientUnits="userSpaceOnUse" id="SVGID_4_" node-id="17" spreadMethod="pad" x1="3051.4565" x2="3179.133" y1="3783.6616" y2="3783.6616"><stop offset="0" stop-color="#4085f0"></stop><stop offset="1" stop-color="#275dc9"></stop></linearGradient><linearGradient gradientUnits="userSpaceOnUse" id="SVGID_5_" node-id="21" spreadMethod="pad" x1="3497.675" x2="3767.2598" y1="3064.5845" y2="3064.5845"><stop offset="0" stop-color="#68b2fc"></stop><stop offset="1" stop-color="#529bf7"></stop></linearGradient><linearGradient gradientUnits="userSpaceOnUse" id="SVGID_6_" node-id="26" spreadMethod="pad" x1="513.3103" x2="3553.0566" y1="1988.3182" y2="1988.3182"><stop offset="0" stop-color="#4085f0"></stop><stop offset="1" stop-color="#275dc9"></stop></linearGradient><linearGradient gradientUnits="userSpaceOnUse" id="SVGID_7_" node-id="30" spreadMethod="pad" x1="1126.846" x2="2527.9128" y1="351.3307" y2="351.3307"><stop offset="0" stop-color="#4085f0"></stop><stop offset="1" stop-color="#275dc9"></stop></linearGradient><linearGradient gradientUnits="userSpaceOnUse" id="SVGID_8_" node-id="35" spreadMethod="pad" x1="530.3885" x2="2029.8971" y1="1253.0973" y2="1253.0973"><stop offset="0" stop-color="#68b2fc"></stop><stop offset="1" stop-color="#529bf7"></stop></linearGradient><linearGradient gradientUnits="userSpaceOnUse" id="SVGID_9_" node-id="44" spreadMethod="pad" x1="2682.5657" x2="2380.3538" y1="1402.1735" y2="1282.4857"><stop offset="0" stop-color="#68b2fc"></stop><stop offset="1" stop-color="#ebf0f7"></stop></linearGradient><linearGradient gradientUnits="userSpaceOnUse" id="SVGID_10_" node-id="48" spreadMethod="pad" x1="1997.6776" x2="3553.056" y1="1611.241" y2="1611.241"><stop offset="0" stop-color="#68b2fc"></stop><stop offset="1" stop-color="#529bf7"></stop></linearGradient></defs><path d="M 494.00 1900.60 C 430.20 2105.40 737.10 2233.70 763.30 2600.80 C 775.20 2767.50 713.60 2763.80 721.40 2935.90 C 733.30 3197.40 888.10 3480.30 1116.40 3624.10 C 1256.10 3712.10 1330.30 3689.40 1984.10 3689.90 C 2567.30 3690.40 2693.00 3708.60 2971.50 3654.00 C 3249.70 3599.40 3530.20 3544.40 3575.90 3378.70 C 3618.60 3223.80 3427.50 3075.30 3420.30 2768.30 C 3418.00 2668.50 3435.80 2582.50 3438.30 2570.80 C 3463.40 2453.00 3506.70 2376.40 3522.10 2343.40 C 3608.90 2157.70 3490.10 1901.40 3420.40 1750.90 C 3209.00 1294.80 2913.80 1236.10 2941.60 996.90 C 2960.00 838.70 3094.40 817.90 3091.20 643.80 C 3087.20 427.40 2876.20 277.60 2851.80 260.80 C 2732.60 178.60 2604.00 157.20 2474.80 153.10 C 2358.50 149.40 1920.60 149.40 1277.90 548.10 C 929.90 763.90 613.70 960.10 625.60 1206.40 C 633.60 1370.60 782.50 1458.10 739.30 1619.30 C 697.20 1776.40 537.90 1759.60 494.00 1900.60 Z" fill="url(#SVGID_1_)" fill-rule="nonzero" node-id="259" stroke="none" target-height="3562.7002" target-width="3188.4001" target-x="430.2" target-y="149.4"></path><path d="M 3585.40 1773.10 C 3585.40 1840.92 3530.42 1895.90 3462.60 1895.90 C 3394.78 1895.90 3339.80 1840.92 3339.80 1773.10 C 3339.80 1705.28 3394.78 1650.30 3462.60 1650.30 C 3530.42 1650.30 3585.40 1705.28 3585.40 1773.10 Z" fill="url(#SVGID_2_)" fill-rule="nonzero" node-id="261" stroke="none" target-height="245.59998" target-width="245.59985" target-x="3339.8" target-y="1650.3"></path><path d="M 666.20 2958.80 C 666.20 3078.48 569.18 3175.50 449.50 3175.50 C 329.82 3175.50 232.80 3078.48 232.80 2958.80 C 232.80 2839.12 329.82 2742.10 449.50 2742.10 C 569.18 2742.10 666.20 2839.12 666.20 2958.80 Z" fill="url(#SVGID_3_)" fill-rule="nonzero" node-id="263" stroke="none" target-height="433.3999" target-width="433.40002" target-x="232.8" target-y="2742.1"></path><path d="M 3179.10 3783.70 C 3179.10 3818.94 3150.54 3847.50 3115.30 3847.50 C 3080.06 3847.50 3051.50 3818.94 3051.50 3783.70 C 3051.50 3748.46 3080.06 3719.90 3115.30 3719.90 C 3150.54 3719.90 3179.10 3748.46 3179.10 3783.70 Z" fill="url(#SVGID_4_)" fill-rule="nonzero" node-id="265" stroke="none" target-height="127.6001" target-width="127.6001" target-x="3051.5" target-y="3719.9"></path><path d="M 3767.30 3064.60 C 3767.30 3139.05 3706.95 3199.40 3632.50 3199.40 C 3558.05 3199.40 3497.70 3139.05 3497.70 3064.60 C 3497.70 2990.15 3558.05 2929.80 3632.50 2929.80 C 3706.95 2929.80 3767.30 2990.15 3767.30 3064.60 Z" fill="url(#SVGID_5_)" fill-rule="nonzero" node-id="267" stroke="none" target-height="269.59985" target-width="269.6001" target-x="3497.7" target-y="2929.8"></path><g node-id="606"><path d="M 3543.30 2727.40 C 3504.90 2855.00 3399.60 2871.20 3329.30 3065.90 C 3285.70 3186.70 3311.80 3220.40 3284.50 3319.80 C 3199.20 3630.20 2814.20 3774.30 2776.80 3787.70 C 2643.10 3835.80 2467.00 3819.70 2114.80 3787.70 C 1682.40 3748.40 1464.10 3726.10 1358.20 3598.60 C 1331.10 3565.90 1306.70 3524.80 1139.20 3299.90 C 1100.40 3247.80 1064.40 3200.00 1049.60 3180.40 C 1014.30 3133.90 982.30 3093.90 953.00 3058.90 C 784.70 2858.20 706.50 2824.10 626.60 2682.60 C 524.10 2501.40 466.60 2229.00 561.90 2015.60 C 571.90 1993.20 615.10 1926.00 701.30 1791.60 C 829.00 1592.70 875.20 1536.60 885.40 1438.20 C 891.10 1383.70 886.80 1305.90 840.60 1209.20 C 802.70 1132.10 745.50 984.30 780.90 816.00 C 836.10 553.70 1078.30 421.30 1248.80 328.20 C 1344.50 275.90 1663.50 107.70 2085.00 173.90 C 2136.10 181.90 2768.20 288.10 2856.50 641.80 C 2904.50 834.20 2746.80 920.00 2806.70 1139.50 C 2860.20 1335.50 3000.20 1319.70 3155.10 1567.60 C 3285.70 1776.70 3207.60 1822.40 3342.40 2169.90 C 3346.20 2179.60 3350.10 2189.50 3354.20 2199.70 C 3483.40 2520.20 3585.70 2586.60 3543.30 2727.40 Z" fill="url(#SVGID_6_)" fill-rule="nonzero" group-id="1" node-id="271" stroke="none" target-height="3728.1" target-width="3119.0999" target-x="466.6" target-y="107.7"></path><path d="M 2527.90 309.80 L 1997.70 543.90 L 1126.90 397.40 C 1169.20 371.70 1210.80 349.00 1248.80 328.20 C 1344.50 275.90 1663.50 107.70 2085.00 173.90 C 2114.00 178.50 2330.20 214.70 2527.90 309.80 Z" fill="url(#SVGID_7_)" fill-rule="nonzero" group-id="1" node-id="273" stroke="none" target-height="436.2" target-width="1400.9999" target-x="1126.9" target-y="107.7"></path><path d="M 1992.00 1899.40 C 1964.00 1882.60 1944.40 1857.40 1916.40 1843.40 C 1899.60 1832.20 1871.60 1837.80 1849.20 1846.20 C 1849.20 1846.20 1852.00 1854.60 1849.20 1857.40 C 1838.00 1863.00 1849.20 1877.00 1835.20 1877.00 C 1835.20 1891.00 1835.20 1905.00 1829.60 1916.20 C 1812.80 1949.80 1807.20 1986.20 1790.40 2014.10 C 1723.20 2131.60 1574.90 2084.10 1460.20 2084.10 C 1409.80 2081.30 1359.50 2067.30 1309.10 2067.30 C 1292.30 2064.50 1275.50 2056.10 1258.70 2053.30 C 1230.70 2053.30 1205.50 2047.70 1177.60 2044.90 C 1169.20 2042.10 1166.40 2033.70 1158.00 2030.90 C 1121.60 2025.30 1088.00 2016.90 1057.30 2005.70 C 984.50 1980.50 889.40 1974.90 825.00 2030.90 C 811.00 2042.10 788.60 2050.50 766.20 2053.30 C 687.00 2060.70 590.20 2046.30 530.20 2108.80 C 483.50 2303.90 538.30 2526.90 626.40 2682.60 C 706.40 2824.00 784.50 2858.20 952.80 3058.90 C 969.40 3078.70 986.90 3100.10 1005.30 3123.30 L 2045.10 2568.30 L 2029.70 1913.60 C 2022.40 1909.70 2015.30 1905.00 2008.60 1899.40 C 2003.20 1896.60 1997.60 1902.20 1992.00 1899.40 Z" fill="#ffffff" fill-rule="nonzero" group-id="1" node-id="275" stroke="none" target-height="1291.1001" target-width="1561.6" target-x="483.5" target-y="1832.2"></path><path d="M 1126.80 397.40 C 979.50 486.80 823.70 612.20 780.80 816.00 C 745.40 984.30 802.70 1132.10 840.50 1209.20 C 886.70 1305.80 891.00 1383.70 885.30 1438.20 C 875.10 1536.60 828.80 1592.70 701.20 1791.60 C 615.00 1926.00 571.80 1993.20 561.80 2015.60 C 548.40 2045.60 538.00 2076.80 530.30 2108.80 C 590.30 2046.30 687.10 2060.80 766.30 2053.30 C 788.70 2050.50 811.10 2042.10 825.10 2030.90 C 889.50 1974.90 984.60 1980.50 1057.40 2005.70 C 1088.20 2016.90 1121.80 2025.30 1158.10 2030.90 C 1166.50 2033.70 1169.30 2042.10 1177.70 2044.90 C 1205.70 2047.70 1230.90 2053.30 1258.80 2053.30 C 1275.60 2056.10 1292.40 2064.50 1309.20 2067.30 C 1359.60 2067.30 1409.90 2081.30 1460.30 2084.10 C 1575.00 2084.10 1723.30 2131.70 1790.50 2014.10 C 1807.30 1986.10 1812.90 1949.70 1829.70 1916.20 C 1835.30 1905.00 1835.30 1891.00 1835.30 1877.00 C 1849.30 1877.00 1838.10 1863.00 1849.30 1857.40 C 1852.10 1854.60 1849.30 1846.20 1849.30 1846.20 C 1871.70 1837.80 1899.70 1832.20 1916.50 1843.40 C 1944.50 1857.40 1964.10 1882.60 1992.10 1899.40 C 1997.70 1902.20 2003.30 1896.60 2008.90 1899.40 C 2015.60 1905.10 2022.60 1909.80 2030.00 1913.60 L 1997.80 543.90 L 1126.80 397.40 Z" fill="url(#SVGID_8_)" fill-rule="nonzero" group-id="1" node-id="277" stroke="none" target-height="1734.2999" target-width="1499.7" target-x="530.3" target-y="397.4"></path><path d="M 1397.70 1054.00 L 1382.00 1475.00 L 880.20 1471.40 C 882.50 1460.70 884.20 1449.80 885.40 1438.30 C 885.50 1437.50 885.60 1436.70 885.60 1435.80 C 890.90 1381.50 886.10 1304.50 840.60 1209.30 C 818.20 1163.60 789.00 1093.20 776.20 1008.40 C 773.80 992.40 772.00 976.00 770.90 959.10 L 1397.70 1054.00 Z" fill="#b080b0" fill-rule="nonzero" group-id="1" node-id="279" stroke="none" target-height="515.9" target-width="626.7999" target-x="770.9" target-y="959.1"></path><path d="M 1334.50 1132.70 C 1334.50 1134.90 1334.50 1137.20 1334.60 1139.40 C 1334.90 1137.30 1334.90 1135.10 1334.50 1132.70 Z" fill="#dbd2db" fill-rule="nonzero" group-id="1" node-id="281" stroke="none" target-height="6.7000732" target-width="0.4000244" target-x="1334.5" target-y="1132.7"></path><path d="M 1337.20 1157.90 C 1335.10 1151.70 1334.60 1145.60 1334.50 1139.40 C 1332.70 1149.50 1322.30 1156.50 1317.70 1163.50 C 1312.10 1166.30 1309.30 1160.70 1306.50 1155.10 C 1300.90 1177.50 1303.70 1202.70 1300.90 1225.10 C 1292.50 1219.50 1278.50 1216.70 1278.50 1227.90 C 1275.70 1286.70 1233.70 1289.50 1189.00 1306.30 C 1175.00 1311.90 1172.20 1353.90 1161.00 1373.50 C 1133.00 1412.70 1063.10 1407.10 1032.30 1379.10 C 982.70 1335.00 949.40 1239.40 865.60 1271.20 C 887.80 1338.30 889.80 1393.90 885.70 1436.00 L 1347.10 1438.60 L 1359.00 1120.10 C 1349.00 1129.30 1341.50 1141.70 1337.20 1157.90 Z" fill="#ffb114" fill-rule="nonzero" group-id="1" node-id="283" stroke="none" target-height="318.5" target-width="493.40002" target-x="865.6" target-y="1120.1"></path><path d="M 776.20 1008.30 C 789.00 1093.10 818.10 1163.60 840.60 1209.20 C 850.90 1230.70 859.10 1251.30 865.60 1271.00 C 949.40 1239.30 982.70 1334.90 1032.30 1378.90 C 1063.10 1406.90 1133.00 1412.50 1161.00 1373.30 C 1172.20 1353.70 1175.00 1311.70 1189.00 1306.10 C 1233.80 1289.30 1275.70 1286.50 1278.50 1227.70 C 1278.50 1216.50 1292.50 1219.30 1300.90 1224.90 C 1303.70 1202.50 1300.90 1177.30 1306.50 1154.90 C 1309.30 1160.50 1312.10 1166.10 1317.70 1163.30 C 1322.30 1156.30 1332.70 1149.40 1334.50 1139.20 C 1334.40 1137.00 1334.40 1134.70 1334.40 1132.50 C 1334.90 1134.90 1334.80 1137.10 1334.50 1139.20 C 1334.60 1145.40 1335.20 1151.50 1337.20 1157.70 C 1341.40 1141.60 1349.00 1129.10 1358.80 1119.60 L 1360.10 1084.90 L 776.20 1008.30 Z" fill="#dbd2db" fill-rule="nonzero" group-id="1" node-id="285" stroke="none" target-height="404.2" target-width="583.89996" target-x="776.2" target-y="1008.3"></path><path d="M 1093.00 1147.90 C 1093.00 1175.79 1066.23 1198.40 1033.20 1198.40 C 1000.17 1198.40 973.40 1175.79 973.40 1147.90 C 973.40 1120.01 1000.17 1097.40 1033.20 1097.40 C 1066.23 1097.40 1093.00 1120.01 1093.00 1147.90 Z" fill="#ffde70" fill-rule="nonzero" group-id="1" node-id="287" stroke="none" target-height="101" target-width="119.599976" target-x="973.4" target-y="1097.4"></path><path d="M 2342.00 765.40 L 2399.60 2235.10 L 2274.80 2198.70 L 2216.00 696.60 L 2765.00 476.70 C 2790.90 505.30 2812.90 536.40 2829.80 570.10 L 2342.00 765.40 Z" fill="url(#SVGID_9_)" fill-rule="nonzero" group-id="1" node-id="289" stroke="none" target-height="1758.4001" target-width="613.80005" target-x="2216" target-y="476.7"></path><path d="M 3543.30 2727.40 C 3518.60 2809.50 3466.10 2845.50 3413.10 2912.70 L 2045.20 2568.30 L 1997.60 543.90 L 2527.80 309.80 C 2616.80 352.60 2702.10 407.50 2764.80 476.70 L 2216.00 696.60 L 2274.90 2198.80 L 2399.70 2235.20 L 3528.60 2564.40 C 3534.00 2576.90 3538.50 2588.80 3542.20 2600.50 C 3555.50 2642.50 3557.30 2680.90 3543.30 2727.40 Z" fill="url(#SVGID_10_)" fill-rule="nonzero" group-id="1" node-id="291" stroke="none" target-height="2602.9" target-width="1559.7001" target-x="1997.6" target-y="309.8"></path><path d="M 3528.60 2564.40 L 2399.70 2235.20 L 2342.00 765.40 L 2829.80 570.10 C 2841.20 592.80 2850.20 616.70 2856.50 641.80 C 2904.50 834.20 2746.80 920.00 2806.70 1139.50 C 2860.20 1335.50 3000.20 1319.70 3155.10 1567.60 C 3285.70 1776.70 3207.60 1822.40 3342.40 2169.90 C 3346.20 2179.60 3350.10 2189.50 3354.20 2199.70 C 3428.90 2385.10 3494.70 2485.40 3528.60 2564.40 Z" fill="#ffffff" fill-rule="nonzero" group-id="1" node-id="293" stroke="none" target-height="1994.2999" target-width="1186.6001" target-x="2342" target-y="570.1"></path></g><g node-id="607"><path d="M 2419.60 2238.50 L 2369.80 2238.50 L 2348.80 1124.80 L 2398.60 1129.60 Z" fill="#b080b0" fill-rule="nonzero" group-id="2" node-id="298" stroke="none" target-height="1113.7" target-width="70.80005" target-x="2348.8" target-y="1124.8"></path><path d="M 2619.10 2238.50 L 2569.40 2238.50 L 2548.30 1141.30 L 2598.10 1141.30 Z" fill="#b080b0" fill-rule="nonzero" group-id="2" node-id="300" stroke="none" target-height="1097.2" target-width="70.80005" target-x="2548.3" target-y="1141.3"></path><path d="M 3020.70 2198.80 L 2970.90 2198.80 L 2951.10 1085.10 L 3000.90 1085.10 Z" fill="#b080b0" fill-rule="nonzero" group-id="2" node-id="302" stroke="none" target-height="1113.7001" target-width="69.59985" target-x="2951.1" target-y="1085.1"></path><path d="M 2971.20 2198.80 L 2942.10 2198.80 L 2930.60 1085.10 L 2959.60 1085.10 Z" fill="#572658" fill-rule="nonzero" group-id="2" node-id="304" stroke="none" target-height="1113.7001" target-width="40.599854" target-x="2930.6" target-y="1085.1"></path><path d="M 2373.80 2238.50 L 2344.70 2238.50 L 2333.10 1124.80 L 2362.20 1124.80 Z" fill="#572658" fill-rule="nonzero" group-id="2" node-id="306" stroke="none" target-height="1113.7" target-width="40.69995" target-x="2333.1" target-y="1124.8"></path><path d="M 3171.80 2213.50 L 3142.70 2213.50 L 3124.10 1104.60 L 3160.20 1099.80 Z" fill="#1a1a1a" fill-rule="nonzero" group-id="2" node-id="308" stroke="none" target-height="1113.7" target-width="47.69995" target-x="3124.1" target-y="1099.8"></path><path d="M 2572.20 2206.50 L 2543.10 2206.50 L 2525.40 1148.10 L 2561.20 1148.10 Z" fill="#1a1a1a" fill-rule="nonzero" group-id="2" node-id="310" stroke="none" target-height="1058.4" target-width="46.80005" target-x="2525.4" target-y="1148.1"></path><path d="M 3220.30 2198.80 L 3170.50 2198.80 L 3150.70 1100.60 L 3200.50 1100.60 Z" fill="#b080b0" fill-rule="nonzero" group-id="2" node-id="312" stroke="none" target-height="1098.2001" target-width="69.6001" target-x="3150.7" target-y="1100.6"></path><path d="M 2362.20 1124.80 L 2598.10 1141.30 L 2599.90 1174.30 L 2362.60 1158.70 Z" fill="#b080b0" fill-rule="nonzero" group-id="2" node-id="314" stroke="none" target-height="49.5" target-width="237.69995" target-x="2362.2" target-y="1124.8"></path><path d="M 3200.50 1100.60 L 2959.60 1085.10 L 2960.10 1133.30 L 3201.30 1148.10 Z" fill="#b080b0" fill-rule="nonzero" group-id="2" node-id="316" stroke="none" target-height="63" target-width="241.69995" target-x="2959.6" target-y="1085.1"></path><path d="M 2293.50 1313.60 L 3115.30 1205.90 L 3115.30 1262.90 L 2295.30 1358.60 Z" fill="#572658" fill-rule="nonzero" group-id="2" node-id="318" stroke="none" target-height="152.69995" target-width="821.80005" target-x="2293.5" target-y="1205.9"></path><path d="M 2302.30 1543.20 L 3124.10 1435.60 L 3124.10 1492.60 L 2304.10 1588.20 Z" fill="#572658" fill-rule="nonzero" group-id="2" node-id="320" stroke="none" target-height="152.59998" target-width="821.80005" target-x="2302.3" target-y="1435.6"></path><path d="M 3115.30 1205.90 L 3302.80 1236.60 L 3298.60 1288.90 L 3115.30 1262.90 Z" fill="#1a1a1a" fill-rule="nonzero" group-id="2" node-id="322" stroke="none" target-height="83" target-width="187.5" target-x="3115.3" target-y="1205.9"></path><path d="M 3124.10 1435.60 L 3302.80 1460.60 L 3302.80 1502.90 L 3124.10 1492.60 Z" fill="#1a1a1a" fill-rule="nonzero" group-id="2" node-id="324" stroke="none" target-height="67.30005" target-width="178.69995" target-x="3124.1" target-y="1435.6"></path></g><path d="M 3543.30 2727.40 C 3504.90 2855.00 3399.60 2871.20 3329.30 3065.90 C 3285.70 3186.70 3311.80 3220.40 3284.50 3319.80 C 3199.20 3630.20 2814.20 3774.30 2776.80 3787.70 C 2643.10 3835.80 2467.00 3819.70 2114.80 3787.70 C 1682.40 3748.40 1464.10 3726.10 1358.20 3598.60 C 1331.10 3565.90 1306.70 3524.80 1139.20 3299.90 C 1100.40 3247.80 1064.40 3200.00 1049.60 3180.40 C 1014.30 3133.90 982.30 3093.90 953.00 3058.90 L 2224.30 2170.00 L 3342.40 2170.00 C 3346.20 2179.70 3350.10 2189.60 3354.20 2199.80 C 3483.40 2520.20 3585.70 2586.60 3543.30 2727.40 Z" fill="#dbd2db" fill-rule="nonzero" node-id="327" stroke="none" target-height="1665.8" target-width="2632.7" target-x="953" target-y="2170"></path><path d="M 878.30 2789.30 C 867.10 2775.30 858.70 2758.50 847.50 2744.50 C 836.30 2736.10 827.90 2727.70 819.50 2719.30 C 771.40 2669.20 780.70 2599.10 814.50 2543.80 C 784.00 2572.70 758.90 2605.90 741.90 2643.90 C 733.30 2663.20 737.10 2685.90 751.70 2701.20 C 822.70 2775.50 1037.50 3006.80 1033.20 3078.70 C 1039.10 3074.80 1044.90 3070.90 1050.60 3067.10 C 1023.60 2960.70 961.50 2865.50 878.30 2789.30 Z" fill="#1a1a1a" fill-rule="nonzero" node-id="329" stroke="none" target-height="534.8999" target-width="317.3" target-x="733.3" target-y="2543.8"></path><path d="M 1382.00 2349.60 C 1382.00 2349.60 998.90 2369.10 814.50 2543.80 C 780.70 2599.10 771.50 2669.20 819.50 2719.30 C 827.90 2727.70 836.30 2736.10 847.50 2744.50 C 858.70 2758.50 867.10 2775.30 878.30 2789.30 C 961.40 2865.50 1023.60 2960.80 1050.60 3067.20 C 1262.90 2926.40 1371.50 2863.30 1371.50 2863.30 L 1382.00 2349.60 Z" fill="#152a52" fill-rule="nonzero" node-id="331" stroke="none" target-height="717.59985" target-width="610.5" target-x="771.5" target-y="2349.6"></path><path d="M 1631.10 3306.90 C 1647.90 3298.50 1670.30 3292.90 1687.10 3284.50 C 1698.30 3278.90 1709.50 3273.30 1720.70 3267.70 C 1731.90 3264.90 1745.90 3262.10 1751.50 3256.50 C 1801.90 3222.90 1894.20 3197.70 1871.80 3136.20 C 1829.80 3032.70 1678.70 3063.40 1578.00 3027.10 C 1578.00 3024.30 1564.00 3018.70 1561.20 3013.10 C 1555.60 2996.30 1569.60 2982.30 1583.60 2973.90 C 1625.60 2954.30 1673.10 2971.10 1709.50 2985.10 C 1841.00 3032.70 1975.30 3049.50 2112.40 3024.30 C 2190.80 3010.30 2255.10 2971.10 2305.50 2904.00 C 2369.90 2822.90 2425.80 2747.30 2498.60 2680.10 C 2537.80 2643.70 2577.00 2593.40 2621.70 2576.60 C 2714.00 2543.00 2873.50 2607.40 2915.50 2484.30 C 2867.90 2375.20 2722.40 2375.20 2635.70 2422.70 C 2599.30 2445.10 2560.10 2456.30 2521.00 2473.10 C 2507.00 2478.70 2493.00 2473.10 2479.00 2475.90 C 2442.60 2484.30 2409.00 2481.50 2375.50 2492.70 C 2361.50 2495.50 2344.70 2498.30 2330.70 2498.30 C 2252.30 2503.90 2179.60 2512.30 2101.20 2526.30 C 2078.80 2529.10 2053.60 2537.50 2039.60 2523.50 C 2003.20 2478.70 2053.60 2442.40 2095.60 2420.00 C 2157.20 2389.20 2182.30 2308.10 2176.70 2238.10 C 2174.90 2231.00 2170.90 2220.60 2164.70 2211.70 L 953.00 3058.90 C 982.30 3093.90 1014.40 3133.90 1049.60 3180.40 C 1064.40 3199.90 1100.40 3247.80 1139.20 3299.90 C 1206.20 3389.80 1250.30 3450.30 1280.80 3492.70 C 1361.50 3455.60 1437.80 3415.50 1519.10 3363.00 C 1555.50 3340.50 1591.90 3326.50 1631.10 3306.90 Z" fill="#ccc4cc" fill-rule="nonzero" node-id="333" stroke="none" target-height="1281" target-width="1962.5" target-x="953" target-y="2211.7"></path><path d="M 3354.20 2199.80 C 3350.10 2189.60 3346.20 2179.70 3342.40 2170.00 L 2224.30 2170.00 L 2164.70 2211.70 C 2171.00 2220.50 2175.00 2231.00 2176.70 2238.10 C 2182.30 2308.10 2157.10 2389.20 2095.60 2420.00 C 2053.60 2442.40 2003.30 2478.80 2039.60 2523.50 C 2053.60 2537.50 2078.80 2529.10 2101.20 2526.30 C 2179.60 2512.30 2252.30 2503.90 2330.70 2498.30 C 2344.70 2498.30 2361.50 2495.50 2375.50 2492.70 C 2409.10 2481.50 2442.70 2484.30 2479.00 2475.90 C 2493.00 2473.10 2507.00 2478.70 2521.00 2473.10 C 2560.20 2456.30 2599.40 2445.10 2635.70 2422.70 C 2722.40 2375.10 2868.00 2375.10 2915.50 2484.30 C 2873.50 2607.40 2714.00 2543.10 2621.70 2576.60 C 2576.90 2593.40 2537.80 2643.80 2498.60 2680.10 C 2425.80 2747.30 2369.90 2822.80 2305.50 2904.00 C 2255.10 2971.20 2190.80 3010.30 2112.40 3024.30 C 1975.30 3049.50 1841.00 3032.70 1709.50 2985.10 C 1673.10 2971.10 1625.60 2954.30 1583.60 2973.90 C 1569.60 2982.30 1555.60 2996.30 1561.20 3013.10 C 1564.00 3018.70 1578.00 3024.30 1578.00 3027.10 C 1678.70 3063.50 1829.80 3032.70 1871.80 3136.20 C 1894.20 3197.80 1801.80 3222.90 1751.50 3256.50 C 1745.90 3262.10 1731.90 3264.90 1720.70 3267.70 C 1709.50 3273.30 1698.30 3278.90 1687.10 3284.50 C 1670.30 3292.90 1647.90 3298.50 1631.10 3306.90 C 1591.90 3326.50 1555.50 3340.50 1519.20 3362.90 C 1437.90 3415.30 1361.60 3455.50 1280.90 3492.60 C 1326.70 3556.20 1342.00 3578.90 1358.30 3598.50 C 1464.20 3726.00 1682.50 3748.30 2114.90 3787.60 C 2467.10 3819.60 2643.20 3835.70 2776.90 3787.60 C 2814.30 3774.20 3199.30 3630.10 3284.60 3319.70 C 3311.90 3220.40 3285.80 3186.60 3329.40 3065.80 C 3399.70 2871.20 3505.10 2854.90 3543.40 2727.30 C 3585.70 2586.60 3483.40 2520.20 3354.20 2199.80 Z" fill="#dbd2db" fill-rule="nonzero" node-id="335" stroke="none" target-height="1665.7" target-width="2304.7998" target-x="1280.9" target-y="2170"></path><path d="M 1758.70 3137.50 L 1765.70 3162.80 C 1764.20 3173.40 1753.80 3184.80 1744.30 3189.70 L 1615.90 3265.10 C 1611.50 3267.40 1606.60 3268.40 1601.70 3268.10 L 1586.10 3267.30 L 1605.60 3238.40 L 1758.70 3137.50 Z" fill="#102140" fill-rule="nonzero" group-id="3" node-id="339" stroke="none" target-height="130.8999" target-width="179.59998" target-x="1586.1" target-y="3137.5"></path><path d="M 1283.50 3171.10 L 1585.90 3267.30 C 1595.20 3270.30 1604.80 3263.40 1605.10 3253.60 L 1605.50 3238.40 L 1265.10 3119.90 L 1269.30 3153.90 C 1270.20 3162.00 1275.80 3168.70 1283.50 3171.10 Z" fill="#3b546b" fill-rule="nonzero" group-id="3" node-id="341" stroke="none" target-height="150.40015" target-width="340.40002" target-x="1265.1" target-y="3119.9"></path><path d="M 1382.80 3064.70 L 1753.20 3134.10 C 1761.70 3135.70 1763.70 3147.10 1756.20 3151.40 L 1609.10 3236.30 C 1606.80 3237.60 1604.10 3237.90 1601.60 3237.10 L 1271.70 3132.70 C 1263.60 3130.10 1262.80 3118.90 1270.60 3115.30 L 1377.20 3065.40 C 1378.90 3064.60 1380.90 3064.40 1382.80 3064.70 Z" fill="#6584c6" fill-rule="nonzero" group-id="3" node-id="343" stroke="none" target-height="173.5" target-width="500.8999" target-x="1262.8" target-y="3064.4"></path><path d="M 1287.10 3123.00 L 1381.70 3078.80 L 1738.30 3145.60 L 1603.80 3223.20 Z" fill="#ffffff" fill-rule="nonzero" group-id="3" node-id="345" stroke="none" target-height="144.3999" target-width="451.20007" target-x="1287.1" target-y="3078.8"></path><path d="M 973.30 3064.20 L 1371.50 3311.40 L 648.10 3432.50 L 633.20 3125.60 Z" fill="#ffde70" fill-rule="nonzero" group-id="4" node-id="350" stroke="none" target-height="368.30005" target-width="738.3" target-x="633.2" target-y="3064.2"></path><path d="M 729.40 3291.90 L 742.30 3352.80 L 1219.10 3284.00 L 1100.40 3223.20 Z" fill="#ffffff" fill-rule="nonzero" group-id="4" node-id="352" stroke="none" target-height="129.6001" target-width="489.69995" target-x="729.4" target-y="3223.2"></path><path d="M 722.40 3237.60 L 1062.50 3186.20 L 1028.00 3164.90 L 717.40 3218.10 Z" fill="#b080b0" fill-rule="nonzero" group-id="4" node-id="354" stroke="none" target-height="72.700195" target-width="345.09998" target-x="717.4" target-y="3164.9"></path><path d="M 1363.20 3376.10 L 654.80 3497.20 L 648.10 3432.50 L 1371.50 3311.40 Z" fill="#ffb114" fill-rule="nonzero" group-id="4" node-id="356" stroke="none" target-height="185.80005" target-width="723.4" target-x="648.1" target-y="3311.4"></path><path d="M 1480.20 2904.10 L 2023.60 2926.50 L 2023.60 2958.80 L 1480.20 2931.50 Z" fill="#102140" fill-rule="nonzero" group-id="5,8,19" node-id="365" stroke="none" target-height="54.69995" target-width="543.4" target-x="1480.2" target-y="2904.1"></path><path d="M 1942.30 2611.20 L 1480.20 2904.10 L 2023.60 2926.50 L 2446.70 2611.20 Z" fill="#6584c6" fill-rule="nonzero" group-id="5,8,20" node-id="370" stroke="none" target-height="315.30005" target-width="966.5" target-x="1480.2" target-y="2611.2"></path><path d="M 1963.40 2653.30 L 1634.20 2866.70 L 1974.90 2881.30 L 2311.20 2646.60 Z" fill="#3b546b" fill-rule="nonzero" group-id="5,8" node-id="373" stroke="none" target-height="234.69995" target-width="677" target-x="1634.2" target-y="2646.6"></path><path d="M 1992.10 2664.60 L 1698.80 2860.00" fill="#ffffff" fill-rule="nonzero" group-id="5,8,21" node-id="377" stroke="#000000" stroke-linecap="butt" stroke-width="1" target-height="195.3999" target-width="293.29993" target-x="1698.8" target-y="2664.6"></path><path d="M 2047.80 2666.20 L 1754.50 2861.70" fill="#ffffff" fill-rule="nonzero" group-id="5,8,21" node-id="379" stroke="#000000" stroke-linecap="butt" stroke-width="1" target-height="195.5" target-width="293.30005" target-x="1754.5" target-y="2666.2"></path><path d="M 2103.50 2667.90 L 1810.20 2863.30" fill="#ffffff" fill-rule="nonzero" group-id="5,8,21" node-id="381" stroke="#000000" stroke-linecap="butt" stroke-width="1" target-height="195.40015" target-width="293.30005" target-x="1810.2" target-y="2667.9"></path><path d="M 2159.10 2669.50 L 1865.90 2865.00" fill="#ffffff" fill-rule="nonzero" group-id="5,8,21" node-id="383" stroke="#000000" stroke-linecap="butt" stroke-width="1" target-height="195.5" target-width="293.20007" target-x="1865.9" target-y="2669.5"></path><path d="M 2214.80 2671.20 L 1921.60 2866.60" fill="#ffffff" fill-rule="nonzero" group-id="5,8,21" node-id="385" stroke="#000000" stroke-linecap="butt" stroke-width="1" target-height="195.40015" target-width="293.20007" target-x="1921.6" target-y="2671.2"></path><path d="M 1737.90 2815.80 C 1741.20 2815.10 2028.30 2829.90 2028.30 2829.90" fill="#ffffff" fill-rule="nonzero" group-id="5,8,21" node-id="387" stroke="#000000" stroke-linecap="butt" stroke-width="1" target-height="14.799805" target-width="290.40002" target-x="1737.9" target-y="2815.1"></path><path d="M 1777.70 2792.90 C 1781.00 2792.20 2068.10 2807.00 2068.10 2807.00" fill="#ffffff" fill-rule="nonzero" group-id="5,8,21" node-id="389" stroke="#000000" stroke-linecap="butt" stroke-width="1" target-height="14.800049" target-width="290.40015" target-x="1777.7" target-y="2792.2"></path><path d="M 1817.60 2770.00 C 1820.90 2769.30 2108.00 2784.10 2108.00 2784.10" fill="#ffffff" fill-rule="nonzero" group-id="5,8,21" node-id="391" stroke="#000000" stroke-linecap="butt" stroke-width="1" target-height="14.800049" target-width="290.40002" target-x="1817.6" target-y="2769.3"></path><path d="M 1857.50 2747.10 C 1860.80 2746.40 2147.90 2761.20 2147.90 2761.20" fill="#ffffff" fill-rule="nonzero" group-id="5,8,21" node-id="393" stroke="#000000" stroke-linecap="butt" stroke-width="1" target-height="14.800049" target-width="290.3999" target-x="1857.5" target-y="2746.4"></path><path d="M 1897.40 2724.30 C 1900.70 2723.60 2187.80 2738.40 2187.80 2738.40" fill="#ffffff" fill-rule="nonzero" group-id="5,8,21" node-id="395" stroke="#000000" stroke-linecap="butt" stroke-width="1" target-height="14.799805" target-width="290.40002" target-x="1897.4" target-y="2723.6"></path><path d="M 1927.20 2701.40 C 1930.50 2700.70 2217.60 2715.50 2217.60 2715.50" fill="#ffffff" fill-rule="nonzero" group-id="5,8,21" node-id="397" stroke="#000000" stroke-linecap="butt" stroke-width="1" target-height="14.800049" target-width="290.40015" target-x="1927.2" target-y="2700.7"></path><path d="M 1962.20 2678.00 C 1965.50 2677.30 2252.60 2692.10 2252.60 2692.10" fill="#ffffff" fill-rule="nonzero" group-id="5,8,21" node-id="399" stroke="#000000" stroke-linecap="butt" stroke-width="1" target-height="14.800049" target-width="290.40015" target-x="1962.2" target-y="2677.3"></path><path d="M 1701.70 2839.30 C 1705.00 2838.60 1992.10 2853.40 1992.10 2853.40" fill="#ffffff" fill-rule="nonzero" group-id="5,8,21" node-id="401" stroke="#000000" stroke-linecap="butt" stroke-width="1" target-height="14.799805" target-width="290.40002" target-x="1701.7" target-y="2838.6"></path><path d="M 2109.80 2433.70 L 2023.60 2926.50 L 2456.60 2611.20 L 2526.30 2130.10 Z" fill="#3b546b" fill-rule="nonzero" group-id="5,8" node-id="404" stroke="none" target-height="796.3999" target-width="502.70007" target-x="2023.6" target-y="2130.1"></path><path d="M 2285.80 2517.80 L 2305.20 2462.30 C 2307.90 2454.50 2318.00 2452.30 2323.80 2458.30 L 2348.90 2484.40 C 2353.70 2489.40 2352.80 2497.60 2347.00 2501.40 L 2302.50 2530.70 C 2293.60 2536.60 2282.30 2527.80 2285.80 2517.80 Z" fill="#ffde70" fill-rule="nonzero" group-id="5,8" node-id="406" stroke="none" target-height="84.30005" target-width="71.3999" target-x="2282.3" target-y="2452.3"></path><path d="M 2023.60 2958.80 L 2435.00 2659.90 L 2435.00 2626.90 L 2023.60 2926.50 Z" fill="#6584c6" fill-rule="nonzero" group-id="5,8,22" node-id="410" stroke="none" target-height="331.90015" target-width="411.40002" target-x="2023.6" target-y="2626.9"></path><path d="M 2109.80 2433.70 L 2083.30 2433.70 L 1998.70 2896.60 L 2023.60 2926.50 Z" fill="#102140" fill-rule="nonzero" group-id="5,8,23" node-id="415" stroke="none" target-height="492.80005" target-width="111.1001" target-x="1998.7" target-y="2433.7"></path><path d="M 2526.30 2130.10 L 2496.40 2130.10 L 2083.30 2433.70 L 2109.80 2433.70 Z" fill="#6584c6" fill-rule="nonzero" group-id="5,8,24" node-id="420" stroke="none" target-height="303.59985" target-width="443" target-x="2083.3" target-y="2130.1"></path><path d="M 2674.80 2302.60 L 2687.00 2513.30 C 2687.00 2519.40 2708.70 2524.50 2737.40 2525.60 C 2775.60 2455.50 2776.40 2378.60 2779.80 2302.60 L 2674.80 2302.60 Z" fill="#ffffff" fill-rule="nonzero" node-id="425" stroke="none" target-height="223" target-width="105" target-x="2674.8" target-y="2302.6"></path><path d="M 2779.70 2302.60 C 2776.40 2378.60 2775.50 2455.40 2737.30 2525.60 C 2741.10 2525.70 2745.00 2525.80 2749.00 2525.80 C 2783.30 2525.80 2811.10 2520.20 2811.10 2513.30 L 2823.30 2302.60 L 2779.70 2302.60 Z" fill="#d9d9d9" fill-rule="nonzero" node-id="427" stroke="none" target-height="223.19995" target-width="86" target-x="2737.3" target-y="2302.6"></path><path d="M 2823.30 2302.60 C 2823.30 2310.80 2790.10 2317.50 2749.10 2317.50 C 2708.10 2317.50 2674.90 2310.80 2674.90 2302.60 C 2674.90 2294.40 2708.10 2287.70 2749.10 2287.70 C 2790.10 2287.70 2823.30 2294.40 2823.30 2302.60 Z" fill="#152a52" fill-rule="nonzero" node-id="429" stroke="none" target-height="29.800049" target-width="148.40015" target-x="2674.9" target-y="2287.7"></path><path d="M 1239.30 2652.10 C 1228.10 2635.30 1211.30 2621.30 1211.30 2604.50 C 1192.30 2488.20 1193.40 2347.80 1107.20 2266.90 C 1070.50 2478.50 1041.80 2694.40 1146.70 2747.20 C 1232.60 2790.50 1322.20 2821.20 1407.80 2826.00 C 1339.00 2784.70 1280.90 2722.50 1239.30 2652.10 Z" fill="#d1334a" fill-rule="nonzero" node-id="431" stroke="none" target-height="559.1001" target-width="366" target-x="1041.8" target-y="2266.9"></path><path d="M 1751.90 2507.70 C 1749.70 2497.30 1747.40 2486.60 1745.30 2475.80 C 1703.50 2475.90 1661.70 2484.20 1619.90 2495.40 C 1594.70 2501.00 1569.50 2512.20 1547.10 2529.00 C 1541.50 2531.80 1527.50 2529.00 1530.30 2540.20 C 1524.70 2540.20 1519.10 2537.40 1513.50 2540.20 C 1507.90 2545.80 1499.50 2543.00 1496.70 2551.40 C 1488.30 2548.60 1477.10 2554.20 1477.10 2557.00 C 1463.10 2571.00 1443.50 2573.80 1429.50 2576.60 C 1367.90 2590.60 1298.00 2576.60 1281.20 2520.60 C 1247.60 2411.50 1286.80 2293.90 1256.00 2179.20 C 1253.20 2168.00 1244.80 2154.00 1233.60 2142.80 C 1230.80 2137.20 1236.40 2128.80 1233.60 2123.20 C 1205.90 2093.20 1178.20 2069.00 1142.70 2056.60 C 1133.30 2121.60 1119.80 2194.00 1107.20 2266.80 C 1193.40 2347.80 1192.30 2488.20 1211.30 2604.40 C 1211.30 2621.20 1228.10 2635.20 1239.30 2652.00 C 1280.90 2722.40 1339.00 2784.50 1407.80 2825.90 C 1468.00 2829.30 1526.30 2819.80 1579.80 2792.70 C 1709.20 2727.40 1782.20 2649.00 1751.90 2507.70 Z" fill="#eb485c" fill-rule="nonzero" node-id="433" stroke="none" target-height="772.69995" target-width="675" target-x="1107.2" target-y="2056.6"></path><path d="M 1705.00 2049.30 C 1712.00 1949.20 1702.00 1892.00 1663.70 1861.60 C 1663.70 1861.60 1663.70 1861.60 1663.70 1861.60 C 1647.00 1848.30 1624.90 1840.20 1596.40 1835.80 C 1502.70 1821.40 1401.50 1793.20 1401.50 1793.20 C 1401.50 1793.20 1179.20 1774.10 1146.80 2028.00 C 1145.60 2037.40 1144.30 2047.00 1142.90 2056.70 C 1178.40 2069.00 1206.10 2093.30 1233.80 2123.30 C 1236.60 2128.90 1231.00 2137.30 1233.80 2142.90 C 1245.00 2154.10 1253.40 2168.10 1256.20 2179.30 C 1287.00 2294.00 1247.80 2411.60 1281.40 2520.70 C 1298.20 2576.70 1368.10 2590.70 1429.70 2576.70 C 1443.70 2573.90 1463.30 2571.10 1477.30 2557.10 C 1477.30 2554.30 1488.50 2548.70 1496.90 2551.50 C 1499.70 2543.10 1508.10 2545.90 1513.70 2540.30 C 1519.30 2537.50 1524.90 2540.30 1530.50 2540.30 C 1527.70 2529.10 1541.70 2531.90 1547.30 2529.10 C 1569.70 2512.30 1594.90 2501.10 1620.10 2495.50 C 1661.90 2484.40 1703.70 2476.00 1745.50 2475.90 C 1741.40 2455.50 1737.30 2434.60 1733.50 2413.20 C 1711.90 2293.60 1697.10 2162.30 1705.00 2049.30 Z" fill="#ef5668" fill-rule="nonzero" node-id="435" stroke="none" target-height="816.6" target-width="602.6" target-x="1142.9" target-y="1774.1"></path><path d="M 1706.70 1978.30 C 1707.50 1999.20 1706.80 2022.70 1705.00 2049.40 C 1697.10 2162.40 1711.90 2293.70 1733.30 2413.30 C 1766.80 2447.50 1804.20 2463.80 1804.20 2463.80 C 1804.70 2463.40 1805.40 2462.90 1806.30 2462.30 C 1701.50 2336.90 1738.30 2158.80 1712.30 2000.20 C 1710.90 1992.80 1709.10 1985.50 1706.70 1978.30 Z" fill="#d1334a" fill-rule="nonzero" node-id="437" stroke="none" target-height="485.5" target-width="109.20007" target-x="1697.1" target-y="1978.3"></path><path d="M 2097.90 2225.30 C 2064.40 2227.70 1977.10 2299.30 1895.80 2298.50 C 1814.50 2297.70 1811.20 2225.20 1770.30 2048.30 C 1729.90 1873.40 1665.20 1861.90 1663.70 1861.70 C 1691.80 1884.00 1704.70 1920.80 1706.80 1978.40 C 1709.20 1985.60 1711.00 1992.90 1712.30 2000.30 C 1738.30 2159.00 1701.50 2337.00 1806.30 2462.40 C 1825.90 2469.20 1821.20 2466.50 1853.80 2471.90 C 1934.90 2475.50 2053.60 2412.70 2088.30 2364.20 C 2121.50 2360.90 2155.20 2321.30 2158.50 2282.10 C 2161.80 2242.60 2131.40 2223.00 2097.90 2225.30 Z" fill="#ef5668" fill-rule="nonzero" node-id="439" stroke="none" target-height="613.80005" target-width="498.1001" target-x="1663.7" target-y="1861.7"></path><path d="M 1382.00 1841.40 C 1382.00 1841.40 1432.50 1968.60 1496.90 2016.70 C 1529.70 2009.50 1529.70 2009.50 1529.70 2009.50 C 1529.70 2009.50 1594.20 1880.30 1587.80 1856.90 C 1581.40 1833.50 1558.40 1834.20 1558.40 1834.20 L 1382.00 1841.40 Z" fill="#ffde70" fill-rule="nonzero" node-id="441" stroke="none" target-height="183.19995" target-width="212.19995" target-x="1382" target-y="1833.5"></path><path d="M 1558.40 1762.90 C 1608.90 1774.30 1657.50 1751.60 1681.80 1692.00 C 1713.90 1613.50 1695.10 1468.60 1695.10 1468.60 L 1525.90 1439.80 C 1525.90 1439.80 1391.00 1511.70 1391.00 1516.10 C 1391.00 1520.50 1389.90 1686.40 1391.00 1689.80 C 1392.10 1693.10 1410.90 1702.00 1406.50 1731.80 C 1402.10 1761.70 1352.30 1796.00 1352.30 1796.00 C 1352.30 1796.00 1378.80 1875.60 1445.20 1890.00 C 1511.60 1904.40 1566.90 1841.90 1566.90 1841.90 C 1558.20 1815.40 1551.40 1788.90 1558.40 1762.90 Z" fill="#fc9590" fill-rule="nonzero" node-id="443" stroke="none" target-height="464.59998" target-width="361.59998" target-x="1352.3" target-y="1439.8"></path><path d="M 1500.90 1738.00 C 1500.90 1738.00 1540.60 1757.50 1558.30 1763.00 C 1555.70 1778.50 1550.80 1794.30 1557.60 1808.20 C 1527.50 1797.10 1483.20 1766.70 1500.90 1738.00 Z" fill="#db6767" fill-rule="nonzero" node-id="445" stroke="none" target-height="70.19995" target-width="75.1001" target-x="1483.2" target-y="1738"></path><path d="M 1093.80 2822.80 C 1063.00 2822.80 1032.20 2811.60 1018.20 2786.40 C 987.40 2736.00 979.00 2677.30 979.00 2615.70 C 989.50 2394.50 1029.80 2178.30 1085.80 1964.70 C 1004.00 2101.50 969.10 2311.70 930.10 2514.90 C 868.70 2835.10 1052.90 2896.50 1129.20 2878.30 C 1205.50 2860.00 1378.10 2853.40 1496.80 2846.80 C 1516.30 2840.40 1529.40 2827.00 1536.60 2810.70 C 1387.40 2801.70 1240.60 2822.80 1093.80 2822.80 Z" fill="#d1334a" fill-rule="nonzero" node-id="447" stroke="none" target-height="931.80005" target-width="667.89996" target-x="868.7" target-y="1964.7"></path><path d="M 1526.30 2729.00 C 1501.90 2704.10 1266.90 2684.20 1147.50 2656.00 C 1074.50 2563.10 1248.70 2077.00 1248.70 2077.00 L 1283.30 1816.80 C 1195.50 1831.50 1132.90 1886.00 1085.80 1964.80 C 1029.80 2178.40 989.50 2394.60 979.00 2615.80 C 979.00 2677.40 987.40 2736.10 1018.20 2786.50 C 1032.20 2811.70 1063.00 2822.90 1093.80 2822.90 C 1240.60 2822.90 1387.40 2801.80 1536.70 2810.80 C 1548.30 2784.70 1544.40 2751.50 1526.30 2729.00 Z" fill="#ef5668" fill-rule="nonzero" node-id="449" stroke="none" target-height="1006.09985" target-width="569.30005" target-x="979" target-y="1816.8"></path><path d="M 1343.30 1780.00 C 1343.30 1780.00 1270.80 1813.20 1279.10 1842.50 C 1309.00 1882.90 1327.20 1919.40 1365.90 1916.10 C 1404.60 1912.80 1404.60 1912.80 1404.60 1912.80 L 1402.40 1993.00 C 1402.40 1993.00 1487.60 2002.40 1495.30 2020.10 C 1503.00 2037.80 1516.90 2064.30 1516.90 2064.30 C 1516.90 2064.30 1516.30 2014.70 1494.80 1988.40 C 1473.20 1962.00 1411.20 1890.10 1397.70 1857.50 C 1384.20 1824.80 1353.30 1775.00 1343.30 1780.00 Z" fill="#ffffff" fill-rule="nonzero" node-id="451" stroke="none" target-height="289.30005" target-width="246.09998" target-x="1270.8" target-y="1775"></path><path d="M 1566.70 1816.80 C 1566.70 1816.80 1578.90 1882.30 1563.40 1913.30 C 1547.90 1944.30 1507.10 2010.70 1507.10 2010.70 C 1507.10 2010.70 1513.20 2031.70 1513.90 2036.20 C 1532.40 2016.20 1597.10 1973.10 1579.40 1933.30 C 1604.80 1918.40 1610.40 1897.40 1613.70 1870.30 C 1617.00 1843.20 1618.10 1834.90 1617.60 1833.20 C 1617.10 1831.40 1583.70 1805.80 1566.70 1816.80 Z" fill="#ffffff" fill-rule="nonzero" node-id="453" stroke="none" target-height="230.3999" target-width="111" target-x="1507.1" target-y="1805.8"></path><path d="M 2065.00 2247.30 C 2065.00 2247.30 1978.30 2329.20 2062.80 2357.90 C 2131.90 2365.10 2151.30 2297.60 2151.30 2281.90 C 2151.30 2266.10 2125.90 2204.20 2065.00 2247.30 Z" fill="#1a1a1a" fill-rule="nonzero" node-id="455" stroke="none" target-height="160.90015" target-width="173" target-x="1978.3" target-y="2204.2"></path><path d="M 1989.20 2274.40 C 1950.50 2235.70 1945.30 2172.00 1940.90 2113.80 L 1907.20 2113.80 L 1922.00 2370.30 C 1922.00 2378.70 1955.80 2385.50 1997.60 2385.50 C 2039.30 2385.50 2073.20 2378.70 2073.20 2370.30 L 2078.30 2281.90 C 2049.70 2299.30 2009.10 2296.40 1989.20 2274.40 Z" fill="#ffb114" fill-rule="nonzero" node-id="457" stroke="none" target-height="271.69995" target-width="171.1001" target-x="1907.2" target-y="2113.8"></path><path d="M 1941.00 2113.80 C 1945.30 2171.90 1950.60 2235.70 1989.30 2274.40 C 2009.10 2296.40 2049.70 2299.40 2078.40 2281.90 L 2088.10 2113.80 L 1941.00 2113.80 Z" fill="#ffde70" fill-rule="nonzero" node-id="459" stroke="none" target-height="185.59985" target-width="147.1001" target-x="1941" target-y="2113.8"></path><path d="M 2088.10 2113.80 C 2088.10 2123.85 2047.63 2132.00 1997.70 2132.00 C 1947.77 2132.00 1907.30 2123.85 1907.30 2113.80 C 1907.30 2103.75 1947.77 2095.60 1997.70 2095.60 C 2047.63 2095.60 2088.10 2103.75 2088.10 2113.80 Z" fill="#1a1a1a" fill-rule="nonzero" node-id="461" stroke="none" target-height="36.399902" target-width="180.80005" target-x="1907.3" target-y="2095.6"></path><path d="M 2053.60 2316.30 C 2103.60 2331.70 2125.80 2291.60 2130.30 2246.00 C 2125.10 2240.20 2117.40 2236.10 2106.50 2234.60 C 2106.50 2234.60 2082.60 2185.50 2045.30 2184.30 C 2008.00 2183.20 1959.40 2189.80 1952.20 2225.20 C 1950.30 2234.40 1952.00 2246.90 1956.30 2260.50 C 1979.50 2288.80 2020.40 2305.90 2053.60 2316.30 Z" fill="#fc9590" fill-rule="nonzero" node-id="463" stroke="none" target-height="148.5" target-width="180" target-x="1950.3" target-y="2183.2"></path><path d="M 2130.30 2246.00 C 2125.80 2291.60 2103.60 2331.70 2053.60 2316.30 C 2020.40 2305.80 1979.50 2288.80 1956.30 2260.40 C 1968.60 2299.20 2003.10 2346.50 2042.40 2349.00 C 2095.50 2352.40 2086.60 2340.20 2109.90 2330.30 C 2130.30 2320.50 2151.50 2269.50 2130.30 2246.00 Z" fill="#db6767" fill-rule="nonzero" node-id="465" stroke="none" target-height="106.3999" target-width="195.19995" target-x="1956.3" target-y="2246"></path><path d="M 1499.30 2731.80 C 1499.30 2731.80 1444.00 2790.40 1485.50 2838.50 C 1504.30 2843.90 1534.20 2820.00 1534.70 2781.50 C 1535.20 2743.10 1525.30 2722.40 1499.30 2731.80 Z" fill="#1a1a1a" fill-rule="nonzero" node-id="467" stroke="none" target-height="121.5" target-width="91.19995" target-x="1444" target-y="2722.4"></path><path d="M 1521.90 2814.40 C 1614.20 2794.80 1701.00 2806.00 1790.50 2828.40 C 1804.50 2831.20 1818.50 2825.60 1832.50 2831.20 C 1840.90 2834.00 1852.10 2839.60 1860.50 2839.60 C 1882.50 2846.20 1902.70 2835.50 1922.60 2827.90 C 1923.70 2824.10 1921.40 2820.90 1915.70 2816.40 C 1902.40 2805.90 1782.40 2705.20 1746.50 2705.20 C 1710.60 2705.20 1507.00 2747.20 1507.00 2747.20 C 1507.00 2747.20 1466.70 2767.60 1485.30 2816.00 C 1497.40 2817.80 1510.00 2817.10 1521.90 2814.40 Z" fill="#fc9590" fill-rule="nonzero" node-id="469" stroke="none" target-height="141" target-width="457" target-x="1466.7" target-y="2705.2"></path><path d="M 1860.50 2839.60 C 1852.10 2839.60 1840.90 2834.00 1832.50 2831.20 C 1818.50 2825.60 1804.50 2831.20 1790.50 2828.40 C 1701.00 2806.00 1614.20 2794.80 1521.90 2814.40 C 1509.90 2817.10 1497.40 2817.80 1485.30 2816.10 C 1487.00 2820.60 1489.20 2825.30 1492.00 2830.20 C 1560.60 2848.50 1636.90 2848.50 1675.60 2837.40 C 1721.00 2856.80 1876.40 2870.00 1900.10 2850.10 C 1913.60 2838.80 1921.00 2832.90 1922.50 2827.90 C 1902.80 2835.50 1882.50 2846.20 1860.50 2839.60 Z" fill="#db6767" fill-rule="nonzero" node-id="471" stroke="none" target-height="75.19995" target-width="437.19995" target-x="1485.3" target-y="2794.8"></path><path d="M 1512.30 2028.90 C 1512.30 2028.90 1590.00 2304.80 1526.40 2616.80 C 1503.80 2697.50 1503.80 2697.50 1503.80 2697.50 L 1480.30 2705.20 C 1480.30 2705.20 1520.30 2576.90 1526.50 2486.20 C 1532.60 2395.50 1540.90 2223.00 1504.80 2028.90 C 1514.00 2036.10 1512.30 2028.90 1512.30 2028.90 Z" fill="#d1334a" fill-rule="nonzero" node-id="473" stroke="none" target-height="676.2999" target-width="109.69995" target-x="1480.3" target-y="2028.9"></path><path d="M 1507.20 2188.20 C 1507.20 2195.55 1502.19 2201.50 1496.00 2201.50 C 1489.81 2201.50 1484.80 2195.55 1484.80 2188.20 C 1484.80 2180.85 1489.81 2174.90 1496.00 2174.90 C 1502.19 2174.90 1507.20 2180.85 1507.20 2188.20 Z" fill="#d1334a" fill-rule="nonzero" node-id="475" stroke="none" target-height="26.600098" target-width="22.399902" target-x="1484.8" target-y="2174.9"></path><path d="M 1502.60 2049.40 C 1502.60 2056.70 1497.60 2062.70 1491.40 2062.70 C 1485.20 2062.70 1480.20 2056.80 1480.20 2049.40 C 1480.20 2042.10 1485.20 2036.10 1491.40 2036.10 C 1497.60 2036.10 1502.60 2042.00 1502.60 2049.40 Z" fill="#d1334a" fill-rule="nonzero" node-id="477" stroke="none" target-height="26.599976" target-width="22.400024" target-x="1480.2" target-y="2036.1"></path><path d="M 1515.80 2366.70 C 1515.80 2373.40 1510.30 2378.90 1503.60 2378.90 C 1496.90 2378.90 1491.40 2373.40 1491.40 2366.70 C 1491.40 2360.00 1496.90 2354.50 1503.60 2354.50 C 1510.30 2354.50 1515.80 2359.90 1515.80 2366.70 Z" fill="#d1334a" fill-rule="nonzero" node-id="479" stroke="none" target-height="24.399902" target-width="24.400024" target-x="1491.4" target-y="2354.5"></path><path d="M 1506.30 2540.10 C 1506.30 2545.90 1502.30 2550.70 1497.40 2550.70 C 1492.50 2550.70 1488.50 2546.00 1488.50 2540.10 C 1488.50 2534.30 1492.50 2529.50 1497.40 2529.50 C 1502.30 2529.50 1506.30 2534.30 1506.30 2540.10 Z" fill="#d1334a" fill-rule="nonzero" node-id="481" stroke="none" target-height="21.199951" target-width="17.800049" target-x="1488.5" target-y="2529.5"></path><path d="M 1443.40 1617.40 C 1443.40 1617.40 1385.90 1598.00 1409.10 1541.10 C 1432.30 1484.20 1467.70 1545.00 1467.70 1545.00 L 1467.70 1553.30 L 1482.10 1550.00 C 1482.10 1550.00 1471.60 1488.10 1504.20 1483.10 C 1536.80 1478.10 1539.00 1447.20 1550.10 1456.00 C 1561.20 1464.80 1563.40 1476.50 1587.70 1473.70 C 1612.00 1470.90 1624.20 1456.60 1634.20 1469.30 C 1644.20 1482.00 1654.70 1499.70 1674.00 1494.70 C 1693.40 1489.70 1686.20 1496.40 1699.40 1509.10 C 1712.70 1521.80 1748.10 1546.70 1753.60 1531.80 C 1759.10 1516.90 1751.40 1519.60 1738.70 1506.40 C 1726.00 1493.10 1718.20 1474.30 1743.70 1478.20 C 1769.10 1482.10 1779.60 1485.40 1769.10 1494.20 C 1758.60 1503.00 1747.00 1502.50 1779.60 1516.30 C 1812.20 1530.10 1811.70 1540.10 1822.20 1530.10 C 1832.70 1520.10 1854.80 1508.50 1840.50 1496.90 C 1826.10 1485.30 1816.20 1491.90 1816.70 1481.40 C 1817.30 1470.90 1825.00 1477.50 1831.10 1462.00 C 1837.20 1446.50 1831.10 1419.40 1820.00 1415.00 C 1808.90 1410.60 1804.00 1402.80 1805.60 1391.20 C 1807.30 1379.60 1808.40 1374.60 1783.50 1374.10 C 1758.60 1373.50 1751.40 1368.00 1764.70 1359.20 C 1778.00 1350.40 1810.60 1323.80 1775.80 1317.20 C 1741.00 1310.60 1706.10 1317.20 1706.10 1303.40 C 1706.10 1289.60 1677.90 1266.30 1645.30 1282.40 C 1612.70 1298.40 1621.30 1310.60 1624.40 1318.90 C 1627.60 1327.20 1600.40 1341.60 1596.30 1341.60 C 1592.20 1341.60 1603.20 1306.20 1586.60 1300.10 C 1570.00 1294.00 1537.40 1284.10 1525.20 1291.80 C 1513.00 1299.50 1503.60 1288.70 1505.80 1277.00 C 1508.00 1265.30 1452.20 1252.80 1428.40 1277.00 C 1404.60 1301.20 1398.00 1313.40 1412.90 1334.40 C 1427.80 1355.40 1410.10 1383.10 1394.60 1372.60 C 1379.10 1362.10 1365.80 1373.70 1337.10 1380.30 C 1308.30 1386.90 1275.20 1388.60 1264.10 1424.00 C 1253.00 1459.40 1243.60 1475.40 1264.10 1489.80 C 1284.60 1504.20 1313.30 1502.50 1310.60 1524.60 C 1307.80 1546.70 1307.30 1537.90 1310.60 1552.30 C 1313.90 1566.70 1339.40 1556.20 1311.70 1580.50 C 1284.00 1604.80 1263.00 1602.60 1273.00 1640.80 C 1283.00 1679.00 1299.50 1713.80 1344.90 1715.50 C 1390.30 1717.20 1394.70 1723.80 1406.80 1722.10 C 1419.00 1720.40 1428.40 1725.40 1432.80 1712.10 C 1437.20 1698.80 1442.20 1693.30 1438.90 1685.60 C 1435.60 1677.90 1419.00 1660.20 1427.80 1644.10 C 1436.80 1627.90 1443.40 1617.40 1443.40 1617.40 Z" fill="#152a52" fill-rule="nonzero" node-id="483" stroke="none" target-height="472.59998" target-width="611.2001" target-x="1243.6" target-y="1252.8"></path><path d="M 2309.00 3529.70 C 2242.90 3557.70 2166.80 3534.90 2129.50 3477.80 C 2089.90 3417.30 2104.00 3334.00 2153.40 3294.30 C 2192.40 3262.90 2248.80 3262.30 2289.00 3278.30 C 2362.50 3307.50 2374.10 3388.50 2416.70 3386.00 C 2441.30 3384.60 2438.60 3350.20 2476.50 3322.20 C 2519.50 3290.40 2592.80 3280.00 2624.10 3310.20 C 2663.10 3347.80 2608.90 3421.00 2652.00 3469.80 C 2680.50 3502.00 2732.10 3501.80 2755.70 3501.70 C 2836.30 3501.40 2869.80 3452.40 2895.30 3469.80 C 2922.90 3488.60 2889.10 3549.60 2915.20 3649.30 C 2922.40 3676.80 2931.90 3698.50 2939.10 3713.10 C 2927.70 3726.70 2909.50 3745.30 2883.20 3761.00 C 2798.40 3811.60 2669.80 3807.90 2619.90 3745.00 C 2584.20 3700.10 2604.30 3644.80 2580.00 3637.30 C 2548.10 3627.40 2521.60 3724.90 2436.40 3753.00 C 2384.90 3770.00 2303.60 3764.40 2268.80 3709.10 C 2237.90 3659.70 2251.50 3582.10 2309.00 3529.70 Z" fill="#339e7e" fill-rule="nonzero" node-id="485" stroke="none" target-height="549.30005" target-width="849.2002" target-x="2089.9" target-y="3262.3"></path><path d="M 3069.30 3590.20 C 3069.30 3590.20 2970.70 3550.30 2951.20 3454.60 C 2931.70 3358.80 3077.30 3404.70 3025.40 3308.00 C 2973.50 3211.30 2891.70 3345.50 2857.80 3236.50 C 2823.90 3127.50 2917.60 3108.50 2963.50 3120.00 C 3009.40 3131.50 3033.20 3071.60 2958.50 3047.70 C 2883.80 3023.80 2955.60 2895.30 3075.30 2920.60 C 3195.00 2946.00 3216.00 2998.40 3167.60 3054.90 C 3119.20 3111.50 3201.00 3121.50 3228.90 3095.50 C 3256.80 3069.60 3402.40 3180.60 3332.60 3253.70 C 3262.80 3326.90 3210.90 3227.10 3202.90 3300.90 C 3194.90 3374.70 3262.70 3376.70 3262.70 3376.70 C 3262.70 3376.70 3244.70 3438.80 3197.80 3492.50 C 3151.00 3546.30 3091.20 3640.00 3069.30 3590.20 Z" fill="#127755" fill-rule="nonzero" node-id="487" stroke="none" target-height="744.69995" target-width="578.5" target-x="2823.9" target-y="2895.3"></path><path d="M 3051.50 2993.90 C 3051.50 2993.90 3187.70 3235.00 3149.30 3522.40 C 3148.90 3525.60 3148.40 3528.80 3148.00 3532.00" fill="none" node-id="489" stroke="#3dbe88" stroke-linecap="round" stroke-width="2" target-height="538.1001" target-width="136.19995" target-x="3051.5" target-y="2993.9"></path><path d="M 2868.50 3586.80 C 2868.50 3586.80 2780.90 3265.50 2590.30 3126.70 C 2583.80 3122.00 2589.20 3111.70 2596.80 3114.30 C 2832.40 3194.60 2981.00 3475.70 2939.40 3713.20 C 2895.10 3633.40 2868.50 3586.80 2868.50 3586.80 Z" fill="#127755" fill-rule="nonzero" node-id="491" stroke="none" target-height="601.5" target-width="397.19995" target-x="2583.8" target-y="3111.7"></path><path d="M 2768.00 3766.90 C 2734.90 3699.80 2596.60 3496.40 2156.80 3569.00 C 2138.20 3572.10 2137.00 3598.30 2155.20 3603.20 C 2457.30 3683.00 2598.80 3786.50 2628.60 3810.40 C 2632.60 3813.60 2637.80 3814.90 2642.80 3813.90 L 2755.70 3791.90 C 2767.00 3789.50 2773.10 3777.20 2768.00 3766.90 Z" fill="#127755" fill-rule="nonzero" node-id="493" stroke="none" target-height="318.5" target-width="636.1001" target-x="2137" target-y="3496.4"></path><path d="M 3020.70 3644.30 C 3020.70 3644.30 3095.40 3405.60 3302.80 3465.50 C 3452.60 3508.70 3469.40 3622.30 3467.20 3682.00 C 3466.70 3696.10 3449.10 3702.10 3440.00 3691.40 C 3382.30 3623.80 3226.10 3468.90 3101.10 3604.30 C 3022.50 3692.90 3020.90 3659.40 3020.90 3659.40" fill="#0b4f38" fill-rule="nonzero" node-id="495" stroke="none" target-height="296.5" target-width="448.69995" target-x="3020.7" target-y="3405.6"></path><path d="M 2274.90 3404.30 C 2274.90 3404.30 2708.70 3536.50 2850.50 3756.80" fill="none" node-id="497" stroke="#10663f" stroke-linecap="round" stroke-width="2" target-height="352.5" target-width="575.6001" target-x="2274.9" target-y="3404.3"></path><path d="M 2547.60 3817.90 C 2547.60 3817.90 2418.90 3769.70 2394.00 3783.70 C 2511.70 3753.80 2625.40 3741.80 2691.20 3788.20 C 2669.30 3725.90 2651.70 3622.30 2603.60 3609.80 C 2723.10 3654.10 2740.00 3750.80 2740.00 3750.80 C 2740.00 3750.80 2712.10 3673.00 2794.90 3658.00 C 2782.90 3697.90 2804.90 3761.70 2804.90 3761.70 C 2804.90 3761.70 2884.90 3744.80 2898.70 3704.80 C 2828.90 3567.20 2898.70 3520.30 2898.70 3520.30 C 2898.70 3520.30 2866.80 3637.00 2934.60 3676.90 C 2950.60 3605.10 3023.40 3579.20 3056.30 3592.10 C 3038.30 3631.00 3042.80 3659.60 3042.80 3659.60 C 3042.80 3659.60 2962.20 3692.70 2915.50 3737.70 C 2868.80 3782.70 2807.00 3814.40 2725.20 3802.50 C 2662.30 3799.60 2687.20 3854.60 2547.60 3817.90 Z" fill="#0b4f38" fill-rule="nonzero" node-id="499" stroke="none" target-height="334.30005" target-width="662.30005" target-x="2394" target-y="3520.3"></path><path d="M 2647.00 1455.10 C 2647.00 1455.10 2428.90 1531.50 2658.30 1738.00 C 2642.30 1627.30 2645.00 1512.30 2687.60 1492.30 C 2678.30 1465.70 2647.00 1455.10 2647.00 1455.10 Z" fill="#127755" fill-rule="nonzero" group-id="6" node-id="503" stroke="none" target-height="282.90002" target-width="258.7002" target-x="2428.9" target-y="1455.1"></path><path d="M 2642.90 1476.20 C 2642.90 1476.20 2569.10 1380.90 2450.90 1433.30 C 2332.70 1485.70 2323.20 1491.60 2323.20 1491.60 C 2323.20 1491.60 2350.10 1353.00 2503.20 1370.90 C 2656.30 1388.90 2669.30 1451.70 2669.30 1451.70 C 2669.30 1451.70 2664.30 1480.20 2642.90 1476.20 Z" fill="#127755" fill-rule="nonzero" group-id="6" node-id="505" stroke="none" target-height="138.59998" target-width="346.1001" target-x="2323.2" target-y="1353"></path><path d="M 2672.30 1479.20 C 2672.30 1479.20 2753.30 1417.90 2775.40 1507.10 C 2797.50 1596.40 2780.50 1626.80 2780.50 1626.80 C 2780.50 1626.80 2760.60 1528.10 2732.60 1514.60 C 2704.70 1501.10 2674.30 1491.70 2674.30 1491.70 L 2672.30 1479.20 Z" fill="#127755" fill-rule="nonzero" group-id="6" node-id="507" stroke="none" target-height="208.90002" target-width="125.19995" target-x="2672.3" target-y="1417.9"></path><path d="M 2680.90 1455.10 C 2614.10 1394.90 2622.30 1300.70 2654.30 1195.80 C 2506.40 1269.70 2640.80 1443.30 2640.80 1443.30 L 2680.90 1455.10 Z" fill="#127755" fill-rule="nonzero" group-id="6" node-id="509" stroke="none" target-height="259.29993" target-width="174.5" target-x="2506.4" target-y="1195.8"></path><path d="M 2721.50 1478.30 C 2721.50 1478.30 2742.10 1416.50 2815.30 1443.10 C 2782.70 1406.50 2708.90 1407.20 2687.60 1443.80 C 2705.60 1370.70 2751.40 1353.40 2751.40 1353.40 C 2751.40 1353.40 2665.30 1354.60 2664.90 1450.40 C 2652.30 1471.10 2652.30 1471.10 2652.30 1471.10 L 2672.20 1482.40 L 2721.50 1478.30 Z" fill="#127755" fill-rule="nonzero" group-id="6" node-id="511" stroke="none" target-height="129" target-width="163" target-x="2652.3" target-y="1353.4"></path><path d="M 2623.10 1501.90 C 2577.90 1511.40 2540.20 1541.20 2513.70 1578.10 C 2482.90 1621.00 2468.40 1672.60 2461.00 1724.30 C 2456.50 1755.90 2454.40 1787.80 2452.40 1819.70 C 2452.30 1821.60 2455.30 1821.60 2455.40 1819.70 C 2461.70 1719.60 2471.30 1605.60 2555.50 1537.80 C 2575.50 1521.70 2598.70 1510.00 2623.90 1504.80 C 2625.80 1504.40 2625.00 1501.50 2623.10 1501.90 L 2623.10 1501.90 Z" fill="#127755" fill-rule="nonzero" group-id="6,9,25" node-id="517" stroke="none" target-height="320.09998" target-width="173.5" target-x="2452.3" target-y="1501.5"></path><path d="M 2630.30 1504.90 C 2662.70 1525.40 2683.00 1559.40 2694.30 1595.40 C 2707.60 1637.80 2708.00 1682.50 2708.50 1726.50 C 2708.80 1754.00 2709.20 1781.50 2712.50 1808.80 C 2712.70 1810.70 2715.70 1810.70 2715.50 1808.80 C 2704.80 1721.40 2725.30 1624.70 2675.20 1546.20 C 2664.00 1528.60 2649.50 1513.50 2631.90 1502.30 C 2630.20 1501.20 2628.70 1503.80 2630.30 1504.90 L 2630.30 1504.90 Z" fill="#127755" fill-rule="nonzero" group-id="6,10,26" node-id="525" stroke="none" target-height="309.5" target-width="96.6001" target-x="2628.7" target-y="1501.2"></path><path d="M 2651.90 1474.10 C 2636.00 1451.30 2610.50 1436.20 2582.90 1432.80 C 2554.80 1429.40 2526.60 1439.40 2506.10 1458.80 C 2494.70 1469.50 2486.10 1482.80 2480.90 1497.50 C 2480.30 1499.30 2483.20 1500.10 2483.80 1498.30 C 2492.50 1473.30 2512.10 1452.80 2536.30 1442.40 C 2561.60 1431.50 2590.70 1433.30 2615.10 1445.90 C 2628.70 1452.90 2640.50 1463.10 2649.30 1475.60 C 2650.40 1477.20 2653.00 1475.70 2651.90 1474.10 L 2651.90 1474.10 Z" fill="#127755" fill-rule="nonzero" group-id="6,11,27" node-id="533" stroke="none" target-height="70.69995" target-width="172.69995" target-x="2480.3" target-y="1429.4"></path><path d="M 2656.70 1474.90 C 2665.40 1436.10 2674.20 1397.30 2682.90 1358.60 C 2686.70 1341.60 2689.70 1324.10 2695.10 1307.40 C 2699.50 1293.50 2706.80 1279.20 2721.10 1273.50 C 2722.90 1272.80 2722.10 1269.90 2720.30 1270.60 C 2707.70 1275.60 2700.00 1286.50 2695.10 1298.70 C 2688.40 1315.00 2685.70 1333.00 2681.80 1350.10 C 2672.50 1391.50 2663.20 1432.80 2653.80 1474.20 C 2653.40 1475.90 2656.30 1476.70 2656.70 1474.90 L 2656.70 1474.90 Z" fill="#127755" fill-rule="nonzero" group-id="6,12,28" node-id="541" stroke="none" target-height="206.79993" target-width="69.5" target-x="2653.4" target-y="1269.9"></path><path d="M 2704.30 1464.50 C 2704.70 1443.50 2728.30 1428.20 2744.40 1418.60 C 2762.20 1408.00 2781.90 1400.80 2802.30 1397.40 C 2804.20 1397.10 2803.40 1394.20 2801.50 1394.50 C 2779.20 1398.20 2757.70 1406.40 2738.60 1418.60 C 2722.70 1428.70 2701.70 1443.60 2701.30 1464.40 C 2701.20 1466.40 2704.20 1466.40 2704.30 1464.50 L 2704.30 1464.50 Z" fill="#127755" fill-rule="nonzero" group-id="6,13,29" node-id="549" stroke="none" target-height="72.20007" target-width="103" target-x="2701.2" target-y="1394.2"></path><path d="M 2674.70 1472.70 C 2739.20 1458.80 2806.80 1487.70 2841.00 1544.10 C 2850.10 1559.00 2856.50 1575.40 2860.20 1592.40 C 2860.60 1594.30 2863.50 1593.50 2863.10 1591.60 C 2849.10 1527.20 2795.70 1477.00 2730.40 1467.80 C 2711.60 1465.10 2692.40 1465.80 2673.80 1469.80 C 2672.10 1470.20 2672.90 1473.10 2674.70 1472.70 L 2674.70 1472.70 Z" fill="#127755" fill-rule="nonzero" group-id="6,14,30" node-id="557" stroke="none" target-height="135.5" target-width="191.3999" target-x="2672.1" target-y="1458.8"></path><path d="M 3064.50 1431.30 C 3064.50 1431.30 3230.00 1502.10 3055.90 1693.50 C 3068.00 1590.90 3066.00 1484.30 3033.70 1465.80 C 3040.80 1441.20 3064.50 1431.30 3064.50 1431.30 Z" fill="#127755" fill-rule="nonzero" group-id="7" node-id="564" stroke="none" target-height="262.19995" target-width="196.30005" target-x="3033.7" target-y="1431.3"></path><path d="M 3044.70 1432.70 C 3044.70 1432.70 2875.50 1494.40 2871.40 1235.70 C 2932.80 1318.80 3007.30 1395.10 3043.50 1386.50 C 3055.20 1409.30 3044.70 1432.70 3044.70 1432.70 Z" fill="#339e7e" fill-rule="nonzero" group-id="7" node-id="566" stroke="none" target-height="258.70007" target-width="183.80005" target-x="2871.4" target-y="1235.7"></path><path d="M 3067.60 1450.90 C 3067.60 1455.50 3123.80 1407.90 3213.30 1411.10 C 3315.20 1414.80 3310.20 1465.20 3310.20 1465.20 C 3310.20 1465.20 3289.80 1336.70 3173.60 1353.30 C 3057.40 1369.90 3047.60 1428.20 3047.60 1428.20 C 3047.60 1428.20 3051.40 1454.60 3067.60 1450.90 Z" fill="#339e7e" fill-rule="nonzero" group-id="7" node-id="568" stroke="none" target-height="128.5" target-width="267.59985" target-x="3047.6" target-y="1336.7"></path><path d="M 3045.30 1453.70 C 3045.30 1453.70 2983.80 1396.80 2967.10 1479.60 C 2950.30 1562.30 2963.20 1590.50 2963.20 1590.50 C 2963.20 1590.50 2978.30 1499.00 2999.50 1486.50 C 3020.70 1474.00 3043.80 1465.20 3043.80 1465.20 L 3045.30 1453.70 Z" fill="#127755" fill-rule="nonzero" group-id="7" node-id="570" stroke="none" target-height="193.69995" target-width="95" target-x="2950.3" target-y="1396.8"></path><path d="M 3038.80 1431.30 C 3059.50 1391.40 3052.60 1304.40 3059.00 1190.90 C 3171.30 1259.40 3069.20 1420.30 3069.20 1420.30 L 3038.80 1431.30 Z" fill="#127755" fill-rule="nonzero" group-id="7" node-id="572" stroke="none" target-height="240.40002" target-width="132.5" target-x="3038.8" target-y="1190.9"></path><path d="M 3008.00 1452.90 C 3008.00 1452.90 2992.40 1395.60 2936.80 1420.20 C 2961.50 1386.30 3017.60 1386.90 3033.70 1420.80 C 3020.10 1353.00 2985.20 1337.00 2985.20 1337.00 C 2985.20 1337.00 3050.60 1338.10 3050.90 1426.90 C 3060.40 1446.10 3060.40 1446.10 3060.40 1446.10 L 3045.30 1456.60 L 3008.00 1452.90 Z" fill="#127755" fill-rule="nonzero" group-id="7" node-id="574" stroke="none" target-height="119.599976" target-width="123.59985" target-x="2936.8" target-y="1337"></path><path d="M 3063.10 1450.40 C 3077.00 1426.20 3104.40 1407.90 3133.20 1414.10 C 3160.90 1420.10 3180.50 1445.30 3188.00 1471.40 C 3188.50 1473.30 3191.40 1472.50 3190.90 1470.60 C 3183.00 1443.10 3162.00 1416.60 3132.70 1410.90 C 3103.00 1405.20 3074.90 1423.70 3060.50 1448.80 C 3059.50 1450.60 3062.10 1452.10 3063.10 1450.40 L 3063.10 1450.40 Z" fill="#127755" fill-rule="nonzero" group-id="7,15,31" node-id="580" stroke="none" target-height="68.1001" target-width="131.8999" target-x="3059.5" target-y="1405.2"></path><path d="M 3059.70 1448.90 C 3052.80 1411.60 3045.90 1374.30 3039.00 1336.90 C 3036.00 1320.80 3033.90 1304.20 3029.10 1288.50 C 3025.70 1277.40 3020.30 1265.60 3009.30 1260.30 C 3007.60 1259.50 3006.00 1262.00 3007.80 1262.90 C 3019.90 1268.80 3024.70 1282.90 3027.80 1295.10 C 3031.90 1311.00 3034.20 1327.50 3037.20 1343.60 C 3043.70 1379.00 3050.30 1414.30 3056.80 1449.70 C 3057.20 1451.60 3060.10 1450.80 3059.70 1448.90 L 3059.70 1448.90 Z" fill="#127755" fill-rule="nonzero" group-id="7,16,32" node-id="588" stroke="none" target-height="192.09998" target-width="54.100098" target-x="3006" target-y="1259.5"></path><path d="M 3023.70 1440.00 C 3023.40 1422.00 3008.80 1408.10 2995.50 1397.70 C 2981.40 1386.60 2965.00 1378.70 2947.40 1375.10 C 2945.50 1374.70 2944.70 1377.60 2946.60 1378.00 C 2962.70 1381.30 2977.80 1388.30 2991.10 1398.10 C 3004.50 1408.00 3020.40 1422.10 3020.70 1440.10 C 3020.70 1442.00 3023.70 1442.00 3023.70 1440.00 L 3023.70 1440.00 Z" fill="#127755" fill-rule="nonzero" group-id="7,17,33" node-id="596" stroke="none" target-height="67.30005" target-width="79" target-x="2944.7" target-y="1374.7"></path><path d="M 3044.20 1444.90 C 3018.00 1438.10 2990.30 1442.10 2966.80 1455.40 C 2943.70 1468.50 2926.00 1489.80 2914.40 1513.60 C 2907.60 1527.60 2902.80 1542.60 2900.10 1557.90 C 2899.80 1559.80 2902.70 1560.60 2903.00 1558.70 C 2908.70 1526.50 2923.60 1495.20 2947.90 1472.90 C 2973.60 1449.40 3009.40 1438.90 3043.40 1447.80 C 3045.20 1448.30 3046.00 1445.40 3044.20 1444.90 L 3044.20 1444.90 Z" fill="#127755" fill-rule="nonzero" group-id="7,18,34" node-id="604" stroke="none" target-height="122.5" target-width="146.19995" target-x="2899.8" target-y="1438.1"></path></svg>